<svg aria-hidden="true" style="position: absolute; width: 0; height: 0; overflow: hidden;" version="1.1" xmlns="http://www.w3.org/2000/svg" xmlns:xlink="http://www.w3.org/1999/xlink">
    <defs>
        <symbol id="icon-linkedin" viewBox="0 0 32 32">
            <path d="M31.992 32v-0.001h0.008v-11.736c0-5.741-1.236-10.164-7.948-10.164-3.227 0-5.392 1.771-6.276 3.449h-0.093v-2.913h-6.364v21.364h6.627v-10.579c0-2.785 0.528-5.479 3.977-5.479 3.399 0 3.449 3.179 3.449 5.657v10.401h6.62z"></path>
            <path d="M0.528 10.636h6.635v21.364h-6.635v-21.364z"></path>
            <path d="M3.843 0c-2.121 0-3.843 1.721-3.843 3.843s1.721 3.879 3.843 3.879c2.121 0 3.843-1.757 3.843-3.879-0.001-2.121-1.723-3.843-3.843-3.843v0z"></path>
        </symbol>
        <symbol id="icon-facebook" viewBox="0 0 32 32">
            <path d="M21.329 5.313h2.921v-5.088c-0.504-0.069-2.237-0.225-4.256-0.225-4.212 0-7.097 2.649-7.097 7.519v4.481h-4.648v5.688h4.648v14.312h5.699v-14.311h4.46l0.708-5.688h-5.169v-3.919c0.001-1.644 0.444-2.769 2.735-2.769z"></path>
        </symbol>
        <symbol id="icon-instagram" viewBox="0 0 32 32">
            <path d="M31.969 9.408c-0.075-1.7-0.35-2.869-0.744-3.882-0.406-1.075-1.032-2.038-1.851-2.838-0.8-0.813-1.769-1.444-2.832-1.844-1.019-0.394-2.182-0.669-3.882-0.744-1.713-0.081-2.257-0.1-6.601-0.1s-4.888 0.019-6.595 0.094c-1.7 0.075-2.869 0.35-3.882 0.744-1.075 0.406-2.038 1.031-2.838 1.85-0.813 0.8-1.444 1.769-1.844 2.832-0.394 1.019-0.669 2.182-0.744 3.882-0.081 1.713-0.1 2.257-0.1 6.601s0.019 4.888 0.094 6.595c0.075 1.7 0.35 2.869 0.744 3.882 0.406 1.075 1.038 2.038 1.85 2.838 0.8 0.813 1.769 1.444 2.832 1.844 1.019 0.394 2.182 0.669 3.882 0.744 1.706 0.075 2.25 0.094 6.595 0.094s4.888-0.019 6.595-0.094c1.7-0.075 2.869-0.35 3.882-0.744 2.151-0.832 3.851-2.532 4.682-4.682 0.394-1.019 0.669-2.182 0.744-3.882 0.075-1.707 0.094-2.251 0.094-6.595s-0.006-4.888-0.081-6.595zM29.087 22.473c-0.069 1.563-0.331 2.407-0.55 2.969-0.538 1.394-1.644 2.5-3.038 3.038-0.563 0.219-1.413 0.481-2.969 0.55-1.688 0.075-2.194 0.094-6.464 0.094s-4.782-0.019-6.464-0.094c-1.563-0.069-2.407-0.331-2.969-0.55-0.694-0.256-1.325-0.663-1.838-1.194-0.531-0.519-0.938-1.144-1.194-1.838-0.219-0.563-0.481-1.413-0.55-2.969-0.075-1.688-0.094-2.194-0.094-6.464s0.019-4.782 0.094-6.464c0.069-1.563 0.331-2.407 0.55-2.969 0.256-0.694 0.663-1.325 1.2-1.838 0.519-0.531 1.144-0.938 1.838-1.194 0.563-0.219 1.413-0.481 2.969-0.55 1.688-0.075 2.194-0.094 6.464-0.094 4.276 0 4.782 0.019 6.464 0.094 1.563 0.069 2.407 0.331 2.969 0.55 0.694 0.256 1.325 0.662 1.838 1.194 0.531 0.519 0.938 1.144 1.194 1.838 0.219 0.563 0.481 1.413 0.55 2.969 0.075 1.688 0.094 2.194 0.094 6.464s-0.019 4.77-0.094 6.458z"></path>
            <path d="M16.059 7.783c-4.538 0-8.22 3.682-8.22 8.22s3.682 8.22 8.22 8.22c4.539 0 8.22-3.682 8.22-8.22s-3.682-8.22-8.22-8.22zM16.059 21.335c-2.944 0-5.332-2.388-5.332-5.332s2.388-5.332 5.332-5.332c2.944 0 5.332 2.388 5.332 5.332s-2.388 5.332-5.332 5.332z"></path>
            <path d="M26.524 7.458c0 1.060-0.859 1.919-1.919 1.919s-1.919-0.859-1.919-1.919c0-1.060 0.859-1.919 1.919-1.919s1.919 0.859 1.919 1.919z"></path>
        </symbol>
        <symbol id="icon-twitter" viewBox="0 0 32 32">
            <path d="M32 6.078c-1.19 0.522-2.458 0.868-3.78 1.036 1.36-0.812 2.398-2.088 2.886-3.626-1.268 0.756-2.668 1.29-4.16 1.588-1.204-1.282-2.92-2.076-4.792-2.076-3.632 0-6.556 2.948-6.556 6.562 0 0.52 0.044 1.020 0.152 1.496-5.454-0.266-10.28-2.88-13.522-6.862-0.566 0.982-0.898 2.106-0.898 3.316 0 2.272 1.17 4.286 2.914 5.452-1.054-0.020-2.088-0.326-2.964-0.808 0 0.020 0 0.046 0 0.072 0 3.188 2.274 5.836 5.256 6.446-0.534 0.146-1.116 0.216-1.72 0.216-0.42 0-0.844-0.024-1.242-0.112 0.85 2.598 3.262 4.508 6.13 4.57-2.232 1.746-5.066 2.798-8.134 2.798-0.538 0-1.054-0.024-1.57-0.090 2.906 1.874 6.35 2.944 10.064 2.944 12.072 0 18.672-10 18.672-18.668 0-0.29-0.010-0.57-0.024-0.848 1.302-0.924 2.396-2.078 3.288-3.406z"></path>
        </symbol>
        <symbol id="icon-astronaut" viewBox="0 0 70 70">
            <path fill="#2196f3" style="fill: var(--color1, #2196f3)" d="M69.943 9.896c-0.138-0.421-0.502-0.729-0.942-0.793l-4.179-0.608-1.87-3.787c-0.392-0.798-1.7-0.798-2.092 0l-1.87 3.787-4.179 0.608c-0.44 0.064-0.804 0.371-0.943 0.793-0.136 0.422-0.023 0.887 0.295 1.196l3.025 2.948-0.714 4.163c-0.075 0.437 0.105 0.88 0.463 1.141 0.363 0.264 0.836 0.296 1.23 0.089l3.738-1.966 3.738 1.966c0.17 0.090 0.358 0.134 0.544 0.134 0.242 0 0.483-0.075 0.686-0.223 0.359-0.261 0.539-0.703 0.463-1.141l-0.714-4.163 3.025-2.948c0.317-0.31 0.431-0.774 0.295-1.196zM64.556 12.799c-0.274 0.267-0.4 0.654-0.335 1.033l0.418 2.437-2.189-1.15c-0.17-0.090-0.357-0.134-0.544-0.134s-0.372 0.044-0.544 0.134l-2.189 1.15 0.418-2.437c0.065-0.378-0.061-0.764-0.335-1.033l-1.772-1.727 2.448-0.356c0.38-0.055 0.708-0.294 0.879-0.638l1.094-2.217 1.094 2.217c0.17 0.344 0.498 0.583 0.879 0.638l2.448 0.356-1.77 1.727z"></path>
            <path fill="#2196f3" style="fill: var(--color1, #2196f3)" d="M57.167 44.892h-2.333v2.333h2.333v-2.333z"></path>
            <path fill="#2196f3" style="fill: var(--color1, #2196f3)" d="M57.167 49.559h-2.333v2.333h2.333v-2.333z"></path>
            <path fill="#2196f3" style="fill: var(--color1, #2196f3)" d="M59.5 47.226h-2.333v2.333h2.333v-2.333z"></path>
            <path fill="#2196f3" style="fill: var(--color1, #2196f3)" d="M54.834 47.226h-2.333v2.333h2.333v-2.333z"></path>
            <path fill="#2196f3" style="fill: var(--color1, #2196f3)" d="M49 57.726h-2.333v2.333h2.333v-2.333z"></path>
            <path fill="#2196f3" style="fill: var(--color1, #2196f3)" d="M49 62.393h-2.333v2.333h2.333v-2.333z"></path>
            <path fill="#2196f3" style="fill: var(--color1, #2196f3)" d="M51.334 60.059h-2.334v2.333h2.334v-2.333z"></path>
            <path fill="#2196f3" style="fill: var(--color1, #2196f3)" d="M46.667 60.059h-2.333v2.333h2.333v-2.333z"></path>
            <path fill="#2196f3" style="fill: var(--color1, #2196f3)" d="M35 53.059h-2.333v2.333h2.333v-2.333z"></path>
            <path fill="#2196f3" style="fill: var(--color1, #2196f3)" d="M35 57.726h-2.333v2.333h2.333v-2.333z"></path>
            <path fill="#2196f3" style="fill: var(--color1, #2196f3)" d="M37.333 55.392h-2.333v2.333h2.333v-2.333z"></path>
            <path fill="#2196f3" style="fill: var(--color1, #2196f3)" d="M32.667 55.392h-2.333v2.333h2.333v-2.333z"></path>
            <path fill="#2196f3" style="fill: var(--color1, #2196f3)" d="M12.833 13.392h-2.333v2.333h2.333v-2.333z"></path>
            <path fill="#2196f3" style="fill: var(--color1, #2196f3)" d="M12.833 18.059h-2.333v2.333h2.333v-2.333z"></path>
            <path fill="#2196f3" style="fill: var(--color1, #2196f3)" d="M15.166 15.725h-2.333v2.333h2.333v-2.333z"></path>
            <path fill="#2196f3" style="fill: var(--color1, #2196f3)" d="M10.5 15.725h-2.333v2.333h2.333v-2.333z"></path>
            <path fill="#212121" style="fill: var(--color2, #212121)" d="M54.064 30.974c-0.629-0.848-1.552-1.394-2.599-1.541-1.052-0.149-2.091 0.127-2.931 0.77l-2.74 2.1-4.151 3.1-2.97-1.183c5.297-2.377 8.999-7.674 8.999-13.825 0-8.363-6.831-15.167-15.228-15.167s-15.227 6.804-15.227 15.167c0 3.031 0.906 5.85 2.45 8.222l-6.046-0.052c-0.003 0-0.007 0-0.011 0-0.019 0-0.034 0.009-0.051 0.011-0.116 0.005-0.229 0.028-0.339 0.068-0.028 0.011-0.057 0.016-0.084 0.029-0.014 0.006-0.028 0.007-0.042 0.014l-7.072 3.492c-0.001 0-0.002 0-0.002 0.001l-4.142 1.992c-0.046 0.020-0.092 0.047-0.138 0.077-1.651 1.099-2.213 3.257-1.309 5.021 0.482 0.938 1.302 1.629 2.31 1.945 0.389 0.121 0.785 0.181 1.179 0.181 0.634 0 1.261-0.155 1.836-0.462l3.036-1.615 4.952-2.557 2.968-0.017-11.904 11.847c-0.001 0.001-0.002 0.001-0.004 0.002l-2.928 2.917c-0.692 0.688-1.072 1.602-1.072 2.576 0 0.973 0.38 1.889 1.072 2.578 0.711 0.707 1.645 1.062 2.58 1.062 0.936 0 1.869-0.355 2.582-1.062l2.875-2.863 3.808-2.843 1.971 1.962-3.854 3.837c-0.001 0.001-0.002 0.001-0.004 0.002l-2.928 2.917c-0.692 0.688-1.072 1.602-1.072 2.576 0 0.973 0.38 1.889 1.072 2.578 0.711 0.707 1.646 1.062 2.581 1.062s1.87-0.355 2.582-1.062l7.616-7.583c0.001-0.001 0.001-0.002 0.002-0.004l2.209-2.188-0.008-0.008c0.014-0.014 0.034-0.019 0.048-0.034l11.3-12.377 7.593 1.080c0.055 0.008 0.11 0.012 0.164 0.012 0.141 0 0.278-0.034 0.409-0.084 0.038-0.014 0.072-0.033 0.108-0.051 0.042-0.021 0.086-0.033 0.126-0.059l7.029-4.667c0.026-0.017 0.040-0.046 0.064-0.064 0.028-0.022 0.063-0.031 0.089-0.056l2.781-2.605c1.447-1.356 1.647-3.577 0.464-5.166zM4.66 38.872c-0.379 0.203-0.81 0.244-1.221 0.113-0.408-0.127-0.74-0.406-0.933-0.783-0.352-0.686-0.148-1.521 0.469-1.973l2.874-1.383 0.982 2.871-2.17 1.154zM12.31 34.874l-3.387 1.75-0.96-2.807 4.434-2.189-0.087 3.246zM45.34 20.392c0 2.009-0.479 3.904-1.31 5.599l-9.147-4.154c-0.096-1.254-0.747-2.352-1.724-3.036l3.203-10.632c5.201 1.654 8.979 6.507 8.979 12.223zM19.552 20.392c0-7.076 5.784-12.834 12.894-12.834 0.553 0 1.094 0.047 1.63 0.114l-3.133 10.399c-0.042-0.001-0.082-0.013-0.125-0.013-2.259 0-4.096 1.832-4.096 4.083s1.838 4.084 4.096 4.084c1.519 0 2.832-0.839 3.54-2.066l8.449 3.838c-2.351 3.164-6.114 5.228-10.361 5.228-7.11 0-12.894-5.758-12.894-12.834zM32.581 22.142c0 0.965-0.791 1.75-1.763 1.75s-1.763-0.785-1.763-1.75c0-0.965 0.791-1.75 1.763-1.75s1.763 0.785 1.763 1.75zM5.392 55.007c-0.517 0.512-1.353 0.511-1.869 0.001-0.249-0.249-0.385-0.576-0.385-0.925 0-0.348 0.136-0.676 0.385-0.922l2.105-2.097 1.862 1.854-2.098 2.088zM12.422 63.174c-0.517 0.512-1.354 0.513-1.87 0.001-0.249-0.248-0.385-0.576-0.385-0.925 0-0.348 0.136-0.676 0.385-0.922l2.106-2.098 1.863 1.854-2.099 2.089zM20.038 55.586c-0.001 0.001-0.002 0.001-0.004 0.002l-3.861 3.85-1.863-1.854 3.857-3.839c0 0 0 0 0-0.001 0.001-0.001 0.002-0.001 0.004-0.002 0.087-0.087 0.142-0.193 0.196-0.296 0.015-0.030 0.044-0.056 0.057-0.087 0.036-0.090 0.042-0.187 0.056-0.281 0.007-0.054 0.030-0.104 0.030-0.159 0-0.078-0.028-0.154-0.044-0.231-0.014-0.070-0.014-0.141-0.041-0.209-0.044-0.11-0.12-0.207-0.199-0.301-0.022-0.026-0.030-0.058-0.055-0.083 0 0 0 0-0.001 0-0.001-0.001-0.001-0.004-0.002-0.005l-3.515-3.5c-0.037-0.037-0.085-0.052-0.127-0.084-0.062-0.048-0.121-0.092-0.19-0.126-0.066-0.033-0.134-0.053-0.204-0.071-0.075-0.021-0.147-0.037-0.225-0.043-0.071-0.005-0.138 0.002-0.209 0.011-0.078 0.009-0.152 0.020-0.228 0.044-0.073 0.023-0.139 0.059-0.206 0.098-0.043 0.024-0.092 0.033-0.133 0.063l-3.879 2.896-1.971-1.962 5.248-5.22 9.539 9.381-2.029 2.010zM34.954 40.237c-0.034-0.005-0.065 0.008-0.099 0.006-0.085-0.005-0.167 0.001-0.252 0.015-0.067 0.012-0.129 0.024-0.192 0.047-0.075 0.026-0.142 0.061-0.211 0.103-0.065 0.040-0.125 0.082-0.182 0.134-0.028 0.024-0.062 0.036-0.087 0.064l-10.277 11.256-9.468-9.311 6.197-6.165c0.456-0.455 0.459-1.194 0.003-1.651-0.23-0.23-0.532-0.343-0.834-0.342v-0.001l-4.853 0.029 0.061-3.516 6.79 0.058c2.767 2.83 6.627 4.596 10.897 4.596 0.957 0 1.89-0.099 2.799-0.268 0.087 0.070 0.174 0.141 0.283 0.186l5.271 2.1 0.723 3.596-6.568-0.934zM43.794 40.627l-0.685-3.408 3.164-2.363 2.071 2.749-4.55 3.022zM52.005 34.434l-1.833 1.717-2.037-2.704 1.819-1.394c0.339-0.261 0.768-0.367 1.188-0.313 0.422 0.059 0.796 0.28 1.050 0.622 0.474 0.638 0.393 1.528-0.187 2.072z"></path>
            <path fill="#212121" style="fill: var(--color2, #212121)" d="M29.755 40.565l-4.688-4.667c-0.454-0.454-1.191-0.454-1.646 0l-4.687 4.667c-0.219 0.221-0.343 0.517-0.343 0.827s0.122 0.608 0.343 0.827l4.687 4.667c0.227 0.226 0.526 0.339 0.824 0.339s0.596-0.113 0.823-0.339l4.688-4.667c0.219-0.219 0.344-0.517 0.344-0.827s-0.124-0.608-0.344-0.827zM24.244 44.413l-3.033-3.021 3.033-3.021 3.034 3.021-3.034 3.021z"></path>
            <path fill="#212121" style="fill: var(--color2, #212121)" d="M37.547 11.092l-0.563 2.266c0.155 0.039 3.801 0.988 3.801 4.701h2.333c-0-4.413-3.644-6.487-5.571-6.966z"></path>
            <path fill="#212121" style="fill: var(--color2, #212121)" d="M43.118 20.392h-2.333v2.333h2.333v-2.333z"></path>
        </symbol>
        <symbol id="icon-antenna" viewBox="0 0 70 70">
            <path fill="#212121" style="fill: var(--color2, #212121)" d="M67.316 48.338l-18.469-18.605 2.050-10.096c0.529 0.207 1.091 0.314 1.659 0.318h0.014c2.608 0.031 4.747-2.058 4.778-4.666s-2.059-4.747-4.667-4.778c-2.608-0.031-4.747 2.058-4.778 4.666-0.007 0.558 0.086 1.113 0.273 1.639l-10.85 1.324-17.698-17.791c-0.217-0.222-0.514-0.348-0.824-0.35-0.306 0.002-0.6 0.124-0.817 0.339l-3.309 3.29c-0.455 0.456-0.455 1.194 0 1.65l1.78 1.806c-6.897 12.683-4.657 28.389 5.511 38.638 0.093 0.089 0.202 0.162 0.32 0.213-0.073 0.395-0.112 0.795-0.114 1.197v13.533h-14c-3.22 0.004-5.83 2.613-5.833 5.833v2.333c0 0.644 0.522 1.167 1.167 1.167h53.667c0.644 0 1.167-0.522 1.167-1.167v-2.333c-0.004-3.22-2.613-5.829-5.833-5.833h-14v-5.998c2.193 0.46 4.428 0.695 6.669 0.7 5.377-0.006 10.669-1.346 15.4-3.901l1.79 1.8c0.217 0.221 0.514 0.347 0.824 0.35 0.306-0.002 0.6-0.124 0.817-0.339l3.309-3.29c0.455-0.456 0.455-1.194 0-1.65zM50.925 13.635c0.914-0.909 2.391-0.905 3.3 0.009s0.905 2.391-0.009 3.3c-0.437 0.435-1.029 0.679-1.646 0.679h-0.007c-1.289-0.007-2.328-1.057-2.321-2.345 0.003-0.617 0.251-1.207 0.688-1.642h-0.005zM48.178 21.301l-1.309 6.443-2.571-2.587 3.88-3.857zM46.853 19.328l-4.2 4.176-3.249-3.267 7.449-0.909zM52.509 63c1.933 0 3.5 1.567 3.5 3.5v1.167h-51.333v-1.167c0-1.933 1.567-3.5 3.5-3.5h44.333zM36.176 58.333v2.333h-11.667v-2.333h11.667zM24.509 56v-8.867c0-2.83 2.617-5.133 5.833-5.133s5.833 2.303 5.833 5.133v8.867h-11.667zM38.509 52.29v-5.157c0-4.117-3.663-7.467-8.167-7.467-2.912-0.045-5.634 1.437-7.177 3.907-8.876-9.349-10.875-23.286-4.984-34.753l40.692 40.925c-6.283 3.196-13.486 4.096-20.363 2.544zM63.204 50.794l-46.062-46.333 1.651-1.645 17.358 17.456c0.008 0 0.013 0.015 0.021 0.021l28.688 28.856-1.656 1.645z"></path>
            <path fill="#2196f3" style="fill: var(--color1, #2196f3)" d="M30.353 44.333h-0.011c-1.933-0.003-3.502 1.562-3.505 3.495s1.562 3.502 3.495 3.505h0.011c1.933 0.003 3.502-1.562 3.505-3.495s-1.562-3.502-3.495-3.505zM31.169 48.661c-0.22 0.218-0.517 0.341-0.827 0.339-0.644-0.003-1.164-0.528-1.161-1.173 0.002-0.308 0.125-0.604 0.344-0.821 0.217-0.216 0.51-0.338 0.817-0.339 0.644 0.003 1.164 0.528 1.16 1.173-0.002 0.308-0.125 0.604-0.344 0.821h0.011z"></path>
        </symbol>
        <symbol id="icon-diagram" viewBox="0 0 70 70">
            <path fill="#2196f3" style="fill: var(--color1, #2196f3)" d="M32.65 32.735h2.332v10.495h-2.332v-10.495z"></path>
            <path fill="#2196f3" style="fill: var(--color1, #2196f3)" d="M41.978 37.399h2.332v5.83h-2.332v-5.83z"></path>
            <path fill="#2196f3" style="fill: var(--color1, #2196f3)" d="M23.321 40.898h2.332v2.332h-2.332v-2.332z"></path>
            <path fill="#2196f3" style="fill: var(--color1, #2196f3)" d="M16.325 39.731h2.332v3.498h-2.332v-3.498z"></path>
            <path fill="#212121" style="fill: var(--color2, #212121)" d="M3.498 61.886h55.971c1.932 0 3.498-1.566 3.498-3.498v-4.664c0-1.932-1.566-3.498-3.498-3.498h-1.166v-29.079l6.623-6.274c1.537 0.758 3.398 0.298 4.404-1.091s0.865-3.3-0.334-4.525-3.107-1.408-4.517-0.433c-1.41 0.976-1.911 2.826-1.187 4.38l-4.991 4.731v-2.69c0-1.932-1.566-3.498-3.498-3.498h-46.642c-1.932 0-3.498 1.566-3.498 3.498v34.982h-1.166c-1.932 0-3.498 1.566-3.498 3.498v4.664c0 1.932 1.566 3.498 3.498 3.498zM66.465 10.58c0.644 0 1.166 0.522 1.166 1.166s-0.522 1.166-1.166 1.166c-0.644 0-1.166-0.522-1.166-1.166s0.522-1.166 1.166-1.166zM6.996 15.244c0-0.644 0.522-1.166 1.166-1.166h46.642c0.644 0 1.166 0.522 1.166 1.166v4.897l-2.332 2.216v-4.781c0-0.644-0.522-1.166-1.166-1.166h-41.978c-0.644 0-1.166 0.522-1.166 1.166v29.151c0 0.644 0.522 1.166 1.166 1.166h41.978c0.644 0 1.166-0.522 1.166-1.166v-21.163l2.332-2.21v26.87h-48.974v-34.982zM17.491 30.403c-1.578-0.005-2.963 1.047-3.382 2.567s0.23 3.134 1.587 3.939c1.356 0.805 3.084 0.603 4.218-0.494l4.053 2.034c0.471 0.236 1.042 0.125 1.392-0.268l8.616-9.693 8.47 6.347c0.454 0.34 1.089 0.304 1.501-0.086l7.361-6.973v17.787h-39.646v-26.819h39.646v5.82l-8.25 7.813-8.541-6.403c-0.485-0.363-1.168-0.295-1.571 0.158l-8.735 9.828-3.265-1.633c0.024-0.14 0.039-0.281 0.044-0.423 0-1.932-1.566-3.498-3.498-3.498zM18.657 33.901c0 0.644-0.522 1.166-1.166 1.166s-1.166-0.522-1.166-1.166c0-0.644 0.522-1.166 1.166-1.166s1.166 0.522 1.166 1.166zM25.653 52.558h11.661v1.166c0 0.644-0.522 1.166-1.166 1.166h-9.328c-0.644 0-1.166-0.522-1.166-1.166v-1.166zM2.332 53.724c0-0.644 0.522-1.166 1.166-1.166h19.823v1.166c0 1.932 1.566 3.498 3.498 3.498h9.328c1.932 0 3.498-1.566 3.498-3.498v-1.166h19.823c0.644 0 1.166 0.522 1.166 1.166v4.664c0 0.644-0.522 1.166-1.166 1.166h-55.971c-0.644 0-1.166-0.522-1.166-1.166v-4.664z"></path>
        </symbol>
        <symbol id="icon-clock" viewBox="0 0 70 70">
            <path fill="#212121" style="fill: var(--color2, #212121)" d="M68.461 33.471c-0.004-18.49-14.996-33.475-33.486-33.471s-33.475 14.996-33.471 33.486c0.003 14.564 9.421 27.455 23.296 31.885 0.132 0.042 0.27 0.063 0.409 0.062 0.264-0 0.522-0.071 0.749-0.205 0.295-0.175 0.516-0.452 0.619-0.78l8.455-26.797c2.311-0.012 4.175-1.895 4.163-4.206s-1.895-4.175-4.206-4.163c-0.622 0.003-1.235 0.146-1.794 0.419l-11.169-11.171c-0.554-0.535-1.437-0.52-1.972 0.034-0.522 0.541-0.522 1.398 0 1.939l11.163 11.176c-0.857 1.748-0.367 3.859 1.173 5.051l-8.056 25.534c-15.92-5.864-24.072-23.524-18.208-39.444s23.524-24.072 39.444-18.208 24.072 23.525 18.208 39.444c-2.865 7.778-8.752 14.068-16.323 17.442l-0.871-4.1c-0.159-0.754-0.9-1.235-1.653-1.076-0.238 0.051-0.458 0.162-0.64 0.324l-8.393 7.493c-0.576 0.512-0.627 1.394-0.114 1.97 0.167 0.187 0.38 0.326 0.619 0.402l10.716 3.42c0.733 0.235 1.519-0.168 1.754-0.902 0.075-0.232 0.087-0.479 0.037-0.717l-0.856-4.023c12.391-5.224 20.436-17.373 20.407-30.82zM34.983 32.077c0.77 0 1.395 0.625 1.395 1.395s-0.625 1.395-1.395 1.395c-0.771 0-1.395-0.624-1.395-1.395s0.624-1.395 1.395-1.395zM39.577 64.592l4.778-4.262 1.319 6.213-6.096-1.951z"></path>
            <path fill="#2196f3" style="fill: var(--color1, #2196f3)" d="M33.588 6.967v2.79c0 0.771 0.624 1.395 1.395 1.395s1.395-0.624 1.395-1.395v-2.79c0-0.77-0.625-1.395-1.395-1.395s-1.395 0.625-1.395 1.395z"></path>
            <path fill="#2196f3" style="fill: var(--color1, #2196f3)" d="M8.479 32.076c-0.771 0-1.395 0.625-1.395 1.395s0.624 1.395 1.395 1.395h2.79c0.771 0 1.395-0.624 1.395-1.395s-0.624-1.395-1.395-1.395h-2.79z"></path>
            <path fill="#2196f3" style="fill: var(--color1, #2196f3)" d="M61.487 34.866c0.771 0 1.395-0.624 1.395-1.395s-0.624-1.395-1.395-1.395h-2.79c-0.77 0-1.395 0.625-1.395 1.395s0.625 1.395 1.395 1.395h2.79z"></path>
        </symbol>
        <symbol id="icon-Logo-5" viewBox="0 0 124 70">
            <path d="M62.329 31.976c-0.517-0.688-0.764-1.501-0.705-2.32v-3.364c0-1.031 0.234-1.815 0.702-2.351s1.271-0.803 2.41-0.801c1.070 0 1.83 0.228 2.279 0.684 0.49 0.582 0.728 1.294 0.674 2.012v0.791h-1.914v-0.801c0.007-0.262-0.012-0.524-0.056-0.784-0.028-0.177-0.124-0.341-0.273-0.465-0.197-0.134-0.444-0.198-0.694-0.181-0.262-0.017-0.522 0.051-0.729 0.192-0.167 0.137-0.278 0.317-0.317 0.513-0.055 0.275-0.080 0.553-0.075 0.832v4.082c-0.030 0.394 0.054 0.788 0.246 1.146 0.095 0.121 0.227 0.217 0.382 0.278s0.326 0.083 0.494 0.064c0.245 0.017 0.489-0.049 0.678-0.185 0.156-0.134 0.256-0.308 0.285-0.496 0.045-0.271 0.065-0.544 0.059-0.818v-0.828h1.914v0.756c0.054 0.749-0.179 1.491-0.662 2.115-0.44 0.5-1.189 0.749-2.291 0.749s-1.934-0.267-2.406-0.821z"></path>
            <path d="M70.3 32.011c-0.484-0.524-0.725-1.287-0.725-2.296v-3.538c0-0.999 0.242-1.755 0.725-2.269s1.292-0.769 2.426-0.767c1.126 0 1.93 0.256 2.414 0.767 0.484 0.513 0.729 1.27 0.729 2.269v3.538c0 0.999-0.246 1.766-0.737 2.293s-1.292 0.791-2.406 0.791c-1.114 0-1.938-0.267-2.426-0.787zM73.617 31.162c0.173-0.328 0.252-0.687 0.23-1.047v-4.332c0.022-0.353-0.055-0.705-0.226-1.027-0.097-0.124-0.233-0.222-0.391-0.282s-0.333-0.081-0.505-0.060c-0.172-0.021-0.347 0-0.506 0.061s-0.295 0.158-0.394 0.281c-0.174 0.32-0.253 0.673-0.23 1.027v4.353c-0.024 0.36 0.055 0.72 0.23 1.047 0.112 0.11 0.249 0.199 0.404 0.259s0.322 0.092 0.492 0.092c0.17 0 0.337-0.031 0.492-0.092s0.292-0.149 0.404-0.259v-0.021z"></path>
            <path d="M78.171 23.244h2.061l1.55 6.528 1.585-6.528h2.006l0.202 9.423h-1.482l-0.159-6.549-1.53 6.549h-1.189l-1.585-6.573-0.147 6.573h-1.498l0.186-9.423z"></path>
            <path d="M87.885 23.244h3.21c1.85 0 2.774 0.892 2.774 2.676 0 1.708-0.974 2.562-2.921 2.559h-1.094v4.188h-1.982l0.012-9.423zM90.628 27.271c0.196 0.021 0.395 0.006 0.583-0.046s0.361-0.137 0.507-0.252c0.227-0.318 0.328-0.692 0.285-1.064 0.010-0.287-0.022-0.575-0.095-0.855-0.028-0.094-0.078-0.182-0.146-0.259s-0.153-0.141-0.25-0.19c-0.275-0.114-0.579-0.166-0.884-0.151h-0.769v2.816h0.769z"></path>
            <path d="M96.728 23.244h2.128l2.184 9.423h-1.847l-0.432-2.173h-1.899l-0.444 2.173h-1.875l2.184-9.423zM98.547 29.403l-0.741-3.955-0.741 3.955h1.482z"></path>
            <path d="M102.804 23.244h1.387l2.656 5.375v-5.375h1.645v9.423h-1.32l-2.671-5.611v5.611h-1.7l0.004-9.423z"></path>
            <path d="M112.344 29.074l-2.208-5.817h1.859l1.348 3.736 1.264-3.736h1.819l-2.18 5.817v3.593h-1.902v-3.593z"></path>
            <path d="M65.389 36.787v0.493h-1.617v3.829h-0.678v-3.829h-1.625v-0.493h3.92z"></path>
            <path d="M70.458 41.109h-0.523c-0.053 0.003-0.105-0.012-0.147-0.041-0.040-0.025-0.070-0.059-0.087-0.099l-0.468-1.027h-2.243l-0.468 1.027c-0.013 0.043-0.038 0.083-0.071 0.116-0.041 0.029-0.094 0.043-0.147 0.041h-0.523l1.982-4.321h0.69l2.006 4.304zM67.176 39.504h1.871l-0.793-1.759c-0.058-0.133-0.107-0.269-0.147-0.407-0.028 0.082-0.052 0.161-0.075 0.229l-0.071 0.181-0.785 1.755z"></path>
            <path d="M73.875 40.684c0.124 0.006 0.248 0.006 0.372 0 0.107-0.010 0.213-0.027 0.317-0.051 0.097-0.021 0.192-0.047 0.285-0.079 0.087-0.031 0.174-0.068 0.266-0.106v-0.972h-0.793c-0.020 0.001-0.039-0.002-0.058-0.007s-0.035-0.015-0.049-0.027c-0.013-0.010-0.023-0.022-0.030-0.035s-0.010-0.028-0.009-0.043v-0.332h1.538v1.656c-0.126 0.077-0.258 0.146-0.396 0.205-0.141 0.060-0.289 0.109-0.44 0.147-0.162 0.041-0.328 0.071-0.495 0.089-0.192 0.018-0.385 0.028-0.579 0.027-0.342 0.003-0.681-0.052-0.999-0.161-0.297-0.103-0.566-0.257-0.793-0.452-0.221-0.197-0.394-0.43-0.511-0.684-0.125-0.287-0.187-0.591-0.182-0.897-0.004-0.308 0.056-0.614 0.178-0.903 0.114-0.256 0.288-0.489 0.511-0.684 0.226-0.194 0.496-0.347 0.793-0.448 0.339-0.11 0.7-0.165 1.062-0.161 0.185-0 0.369 0.013 0.551 0.038 0.161 0.023 0.319 0.059 0.472 0.11 0.139 0.045 0.271 0.102 0.396 0.171 0.121 0.068 0.237 0.143 0.345 0.226l-0.19 0.267c-0.015 0.024-0.037 0.045-0.064 0.059s-0.058 0.022-0.090 0.023c-0.044-0.001-0.086-0.013-0.123-0.034-0.059-0.027-0.123-0.062-0.194-0.103-0.084-0.046-0.173-0.085-0.266-0.116-0.118-0.041-0.24-0.073-0.365-0.096-0.166-0.026-0.335-0.039-0.503-0.038-0.261-0.003-0.521 0.038-0.765 0.12-0.221 0.076-0.419 0.193-0.583 0.342-0.164 0.155-0.29 0.338-0.369 0.537-0.177 0.468-0.177 0.973 0 1.441 0.087 0.203 0.222 0.389 0.396 0.544 0.162 0.148 0.36 0.265 0.579 0.342 0.252 0.075 0.519 0.104 0.785 0.086z"></path>
            <path d="M80.192 40.616h2.164v0.493h-2.826v-4.322h0.678l-0.016 3.829z"></path>
            <path d="M84.608 41.109h-0.678v-4.322h0.678v4.322z"></path>
            <path d="M87.128 36.807c0.040 0.020 0.075 0.047 0.103 0.079l2.897 3.258c-0.004-0.051-0.004-0.103 0-0.154 0-0.048 0-0.096 0-0.14v-3.080h0.591v4.339h-0.341c-0.051 0.003-0.101-0.005-0.147-0.024-0.041-0.021-0.077-0.049-0.107-0.082l-2.893-3.254c0 0.051 0 0.099 0 0.147s0 0.092 0 0.133v3.080h-0.567v-4.322h0.353c0.038 0 0.076 0.007 0.111 0.021z"></path>
            <path d="M95.709 36.787v0.476h-2.402v1.427h1.946v0.458h-1.946v1.475h2.402v0.476h-3.099v-4.312h3.099z"></path>
            <path d="M24.689 10.098l30.094 7.377v25.851l-30.094-7.374v-25.854zM22.759 7.894v29.314l33.951 8.325v-29.31l-33.951-8.328z"></path>
            <path d="M40.955 59.141l-33.955-8.332v-29.311l33.955 8.329v29.314z"></path>
            <path d="M23.321 9.766l29.702 7.285-12.631 10.908-29.706-7.288 12.635-10.905zM22.759 7.894l-15.759 13.604 33.955 8.328 15.755-13.604-33.951-8.328z"></path>
            <path d="M42.865 57.492l13.844-11.955-13.844-3.398v15.353z"></path>
        </symbol>
        <symbol id="icon-Logo-4" viewBox="0 0 124 70">
            <path d="M31.216 52.191c0.284 0.322 0.436 0.726 0.428 1.14 0.014 0.27-0.038 0.54-0.152 0.789s-0.289 0.472-0.511 0.651c-0.552 0.382-1.236 0.569-1.927 0.526h-3.388v-7.223h3.318c0.655-0.040 1.305 0.13 1.838 0.48 0.214 0.164 0.384 0.372 0.496 0.606s0.162 0.49 0.148 0.745c0.019 0.398-0.117 0.79-0.385 1.104-0.258 0.287-0.613 0.486-1.010 0.565 0.449 0.075 0.855 0.294 1.145 0.617zM27.243 51.101h1.418c0.322 0.022 0.643-0.063 0.902-0.24 0.107-0.088 0.189-0.198 0.242-0.32s0.074-0.254 0.062-0.385c0.010-0.131-0.012-0.262-0.064-0.384s-0.133-0.232-0.237-0.322c-0.267-0.182-0.597-0.268-0.929-0.243h-1.395v1.895zM29.702 53.871c0.114-0.091 0.203-0.204 0.261-0.331s0.083-0.265 0.074-0.403c0.009-0.139-0.018-0.279-0.077-0.407s-0.15-0.243-0.266-0.334c-0.278-0.188-0.619-0.281-0.964-0.261h-1.488v1.987h1.507c0.339 0.018 0.675-0.070 0.952-0.25z"></path>
            <path d="M37.999 55.296l-1.846-2.823h-0.694v2.823h-1.588v-7.223h3.006c0.758-0.048 1.507 0.171 2.093 0.614 0.42 0.392 0.674 0.909 0.715 1.457s-0.133 1.091-0.491 1.532c-0.371 0.389-0.878 0.648-1.434 0.734l1.965 2.886h-1.727zM35.46 51.489h1.299c0.902 0 1.353-0.365 1.353-1.094 0.009-0.149-0.016-0.298-0.073-0.438s-0.145-0.267-0.259-0.374c-0.285-0.217-0.652-0.322-1.021-0.293h-1.314l0.016 2.198z"></path>
            <path d="M46.679 53.842h-3.164l-0.559 1.454h-1.665l2.906-7.142h1.8l2.894 7.142h-1.665l-0.547-1.454zM46.255 52.748l-1.156-3.049-1.156 3.049h2.312z"></path>
            <path d="M57.543 55.296h-1.576l-3.534-4.912v4.912h-1.572v-7.223h1.572l3.534 4.94v-4.94h1.576v7.223z"></path>
            <path d="M66.538 53.567c-0.326 0.545-0.823 0.989-1.426 1.274-0.686 0.317-1.448 0.474-2.216 0.455h-2.806v-7.223h2.806c0.767-0.018 1.527 0.134 2.216 0.445 0.603 0.278 1.101 0.718 1.426 1.26 0.324 0.588 0.493 1.237 0.493 1.895s-0.169 1.308-0.493 1.895zM64.734 53.394c0.45-0.48 0.697-1.091 0.697-1.724s-0.247-1.244-0.697-1.724c-0.544-0.435-1.253-0.655-1.973-0.614h-1.094v4.676h1.094c0.72 0.041 1.43-0.179 1.973-0.614z"></path>
            <path d="M47.665 7.894c0 0 20.345 7.033 19.913 17.21v17.213c0 0-20.33-7.036-19.906-17.213l-0.008-17.21z"></path>
            <path d="M85.704 38.288c3.842-2.421 8.287-3.921 12.926-4.362v-5.388c-5.346 1.887-9.881 5.307-12.926 9.75z"></path>
            <path d="M83.395 39.911c3.145-5.798 8.597-10.272 15.235-12.502v-15.527c0 0-28.974 10.018-28.361 24.511v24.507c0 0 1.291-0.448 3.322-1.288 0-0.783 0-1.574 0.092-2.368 0.6-6.728 4.093-12.963 9.712-17.333z"></path>
            <path d="M80.64 49.015c0.152-1.7 0.492-3.381 1.014-5.018-3.499 3.774-5.618 8.458-6.058 13.392-0.042 0.466-0.066 0.932-0.077 1.412 1.646-0.723 3.561-1.627 5.573-2.689-0.513-2.334-0.665-4.723-0.451-7.096z"></path>
            <path d="M81.792 49.103c-0.193 2.147-0.072 4.308 0.358 6.426 7.916-4.337 16.811-11.038 16.468-19.136v-0.706c-5.656 0.579-10.947 2.843-15.061 6.443-0.963 2.231-1.558 4.581-1.765 6.973z"></path>
        </symbol>
        <symbol id="icon-Logo-3" viewBox="0 0 124 70">
            <path d="M28.171 24.62h-0.003c-2.798 0-5.066 2.016-5.066 4.502v0.003c0 2.486 2.268 4.502 5.066 4.502h0.003c2.798 0 5.066-2.016 5.066-4.502v-0.003c0-2.486-2.268-4.502-5.066-4.502z"></path>
            <path d="M65.561 23.181c-0.008-3.453-1.555-6.763-4.302-9.205s-6.472-3.818-10.357-3.826v0c-3.887 0.006-7.613 1.381-10.362 3.823s-4.297 5.753-4.305 9.207v19.043c0 0 29.322-2.902 29.326-19.040v-0.003z"></path>
            <path d="M12.833 48.474c0.007 2.403 1.084 4.706 2.996 6.405s4.502 2.657 7.206 2.664c2.703-0.007 5.293-0.965 7.205-2.663s2.989-4.001 2.997-6.403v-13.251c0 0-20.403 2.021-20.403 13.248zM23.035 50.848c-0.528 0-1.045-0.139-1.484-0.4s-0.782-0.632-0.984-1.066c-0.202-0.434-0.255-0.911-0.152-1.372s0.357-0.884 0.731-1.216c0.374-0.332 0.85-0.558 1.368-0.65s1.055-0.045 1.543 0.135c0.488 0.18 0.905 0.484 1.199 0.874s0.45 0.849 0.45 1.319c0.001 0.312-0.067 0.622-0.2 0.911s-0.33 0.552-0.578 0.773c-0.248 0.221-0.543 0.397-0.868 0.517s-0.673 0.182-1.025 0.182v-0.009z"></path>
            <path d="M43.654 49.541h-1.969v2.034h-1.025v-4.977h3.24v0.831h-2.215v1.285h1.969v0.827zM48.583 49.199c0 0.49-0.087 0.919-0.26 1.289s-0.422 0.654-0.745 0.854c-0.321 0.201-0.69 0.301-1.107 0.301-0.412 0-0.78-0.099-1.104-0.297s-0.574-0.481-0.752-0.848c-0.178-0.369-0.268-0.793-0.27-1.272v-0.246c0-0.49 0.088-0.921 0.263-1.292 0.178-0.374 0.427-0.66 0.749-0.858 0.324-0.201 0.693-0.301 1.107-0.301s0.783 0.1 1.104 0.301c0.324 0.198 0.573 0.484 0.749 0.858 0.178 0.371 0.267 0.801 0.267 1.288v0.222zM47.544 48.974c0-0.522-0.093-0.918-0.28-1.189s-0.453-0.407-0.8-0.407c-0.344 0-0.61 0.134-0.796 0.403-0.187 0.267-0.281 0.658-0.284 1.176v0.243c0 0.508 0.093 0.902 0.28 1.183s0.456 0.42 0.807 0.42c0.344 0 0.608-0.134 0.793-0.403 0.185-0.271 0.278-0.665 0.28-1.183v-0.243zM51.908 50.269c0-0.194-0.068-0.342-0.205-0.444-0.137-0.105-0.383-0.214-0.738-0.328-0.355-0.116-0.637-0.23-0.844-0.342-0.565-0.305-0.848-0.717-0.848-1.234 0-0.269 0.075-0.508 0.226-0.718 0.153-0.212 0.37-0.377 0.653-0.496 0.285-0.118 0.604-0.178 0.957-0.178 0.355 0 0.672 0.065 0.95 0.195 0.278 0.128 0.493 0.309 0.646 0.543 0.155 0.235 0.232 0.501 0.232 0.8h-1.025c0-0.228-0.072-0.404-0.215-0.53-0.143-0.127-0.345-0.191-0.605-0.191-0.251 0-0.446 0.054-0.584 0.161-0.139 0.105-0.208 0.244-0.208 0.417 0 0.162 0.081 0.297 0.243 0.407 0.164 0.109 0.404 0.212 0.721 0.308 0.583 0.175 1.008 0.393 1.275 0.653s0.4 0.583 0.4 0.971c0 0.431-0.163 0.769-0.489 1.015-0.326 0.244-0.764 0.366-1.316 0.366-0.383 0-0.731-0.070-1.046-0.208-0.314-0.141-0.555-0.334-0.721-0.578-0.164-0.244-0.246-0.526-0.246-0.848h1.029c0 0.549 0.328 0.824 0.984 0.824 0.244 0 0.434-0.049 0.571-0.147 0.137-0.1 0.205-0.239 0.205-0.417zM57.381 47.429h-1.524v4.146h-1.025v-4.146h-1.504v-0.831h4.054v0.831zM60.963 49.418h-1.969v1.333h2.311v0.824h-3.336v-4.977h3.329v0.831h-2.304v1.186h1.969v0.803zM63.748 49.753h-0.817v1.822h-1.025v-4.977h1.849c0.588 0 1.041 0.131 1.36 0.393s0.478 0.632 0.478 1.111c0 0.34-0.074 0.623-0.222 0.851-0.146 0.226-0.368 0.406-0.667 0.54l1.077 2.034v0.048h-1.101l-0.933-1.822zM62.931 48.922h0.827c0.258 0 0.457-0.065 0.598-0.195 0.141-0.132 0.212-0.313 0.212-0.543 0-0.235-0.067-0.419-0.202-0.554-0.132-0.134-0.336-0.202-0.612-0.202h-0.824v1.494zM69.145 49.821v1.753h-1.025v-4.977h1.941c0.374 0 0.702 0.068 0.984 0.205 0.285 0.137 0.504 0.331 0.656 0.584 0.153 0.251 0.229 0.537 0.229 0.858 0 0.488-0.168 0.873-0.503 1.155-0.333 0.28-0.794 0.42-1.384 0.42h-0.899zM69.145 48.991h0.916c0.271 0 0.477-0.064 0.619-0.191 0.143-0.128 0.215-0.31 0.215-0.547 0-0.244-0.072-0.441-0.215-0.591s-0.342-0.228-0.595-0.232h-0.94v1.562zM75.632 49.418h-1.969v1.333h2.311v0.824h-3.336v-4.977h3.329v0.831h-2.304v1.186h1.969v0.803zM80.39 47.429h-1.524v4.146h-1.025v-4.146h-1.504v-0.831h4.054v0.831zM83.972 49.418h-1.969v1.333h2.31v0.824h-3.336v-4.977h3.329v0.831h-2.304v1.186h1.969v0.803zM86.758 49.753h-0.817v1.822h-1.025v-4.977h1.849c0.588 0 1.041 0.131 1.36 0.393s0.479 0.632 0.479 1.111c0 0.34-0.074 0.623-0.222 0.851-0.146 0.226-0.368 0.406-0.667 0.54l1.077 2.034v0.048h-1.101l-0.933-1.822zM85.941 48.922h0.827c0.258 0 0.457-0.065 0.598-0.195 0.141-0.132 0.212-0.313 0.212-0.543 0-0.235-0.067-0.419-0.202-0.554-0.132-0.134-0.336-0.202-0.612-0.202h-0.824v1.494zM91.967 50.269c0-0.194-0.068-0.342-0.205-0.444-0.137-0.105-0.383-0.214-0.738-0.328-0.355-0.116-0.637-0.23-0.844-0.342-0.565-0.305-0.848-0.717-0.848-1.234 0-0.269 0.075-0.508 0.226-0.718 0.153-0.212 0.37-0.377 0.653-0.496 0.285-0.118 0.604-0.178 0.957-0.178 0.355 0 0.672 0.065 0.95 0.195 0.278 0.128 0.493 0.309 0.646 0.543 0.155 0.235 0.232 0.501 0.232 0.8h-1.025c0-0.228-0.072-0.404-0.215-0.53-0.144-0.127-0.345-0.191-0.605-0.191-0.251 0-0.445 0.054-0.584 0.161-0.139 0.105-0.208 0.244-0.208 0.417 0 0.162 0.081 0.297 0.243 0.407 0.164 0.109 0.404 0.212 0.721 0.308 0.583 0.175 1.008 0.393 1.275 0.653s0.4 0.583 0.4 0.971c0 0.431-0.163 0.769-0.489 1.015-0.326 0.244-0.765 0.366-1.316 0.366-0.383 0-0.732-0.070-1.046-0.208-0.315-0.141-0.555-0.334-0.721-0.578-0.164-0.244-0.246-0.526-0.246-0.848h1.029c0 0.549 0.328 0.824 0.984 0.824 0.244 0 0.434-0.049 0.571-0.147 0.137-0.1 0.205-0.239 0.205-0.417z"></path>
        </symbol>
        <symbol id="icon-Logo-2" viewBox="0 0 124 70">
            <path d="M42.474 57.285c0.019 0 0.037 0.004 0.054 0.011s0.032 0.016 0.045 0.028l0.255 0.243c-0.198 0.197-0.442 0.354-0.716 0.462-0.321 0.117-0.667 0.173-1.015 0.166-0.327 0.006-0.652-0.047-0.954-0.155-0.273-0.099-0.518-0.248-0.719-0.437-0.205-0.196-0.363-0.425-0.464-0.674-0.111-0.278-0.166-0.571-0.162-0.865-0.005-0.296 0.055-0.591 0.175-0.868 0.111-0.251 0.279-0.48 0.493-0.674 0.217-0.19 0.477-0.34 0.763-0.439 0.313-0.106 0.647-0.158 0.983-0.155 0.312-0.007 0.623 0.041 0.913 0.141 0.252 0.095 0.483 0.227 0.684 0.39l-0.213 0.26c-0.015 0.018-0.033 0.034-0.054 0.047-0.025 0.015-0.056 0.022-0.086 0.019-0.033-0.002-0.065-0.012-0.092-0.028l-0.115-0.069-0.159-0.088c-0.069-0.033-0.14-0.061-0.213-0.086-0.094-0.029-0.191-0.053-0.289-0.069-0.125-0.020-0.252-0.029-0.378-0.028-0.242-0.003-0.482 0.037-0.706 0.116-0.209 0.073-0.398 0.185-0.553 0.326-0.159 0.151-0.281 0.327-0.359 0.52-0.090 0.22-0.134 0.452-0.13 0.685-0.004 0.237 0.040 0.473 0.13 0.697 0.078 0.191 0.198 0.366 0.353 0.517 0.146 0.14 0.326 0.25 0.528 0.321 0.208 0.075 0.431 0.112 0.655 0.11 0.13 0.002 0.26-0.006 0.388-0.022 0.21-0.022 0.411-0.086 0.588-0.185 0.089-0.051 0.173-0.108 0.251-0.171 0.033-0.027 0.076-0.043 0.121-0.044z"></path>
            <path d="M49.822 56.063c0.004 0.293-0.054 0.585-0.172 0.86-0.104 0.249-0.267 0.477-0.479 0.667s-0.468 0.34-0.752 0.438c-0.623 0.206-1.311 0.206-1.934 0-0.282-0.1-0.536-0.249-0.748-0.439-0.212-0.194-0.377-0.423-0.484-0.674-0.229-0.557-0.229-1.165 0-1.722 0.109-0.251 0.273-0.481 0.484-0.677 0.213-0.184 0.468-0.328 0.748-0.423 0.622-0.21 1.312-0.21 1.934 0 0.283 0.1 0.538 0.249 0.751 0.439 0.209 0.192 0.373 0.418 0.48 0.666 0.118 0.277 0.176 0.57 0.172 0.865zM49.154 56.063c0.005-0.235-0.036-0.468-0.121-0.691-0.071-0.191-0.187-0.367-0.34-0.517-0.149-0.142-0.333-0.253-0.538-0.326-0.453-0.151-0.954-0.151-1.406 0-0.205 0.073-0.388 0.184-0.538 0.326-0.155 0.149-0.272 0.325-0.343 0.517-0.162 0.45-0.162 0.932 0 1.382 0.072 0.191 0.189 0.367 0.343 0.517 0.149 0.141 0.333 0.252 0.538 0.323 0.453 0.147 0.953 0.147 1.406 0 0.205-0.072 0.388-0.182 0.538-0.323 0.153-0.151 0.268-0.326 0.34-0.517 0.085-0.223 0.126-0.456 0.121-0.691z"></path>
            <path d="M54.835 56.787l0.067 0.155c0.025-0.055 0.048-0.105 0.073-0.155 0.024-0.052 0.052-0.103 0.083-0.152l1.625-2.567c0.032-0.044 0.060-0.072 0.092-0.080 0.043-0.011 0.088-0.016 0.134-0.014h0.48v4.176h-0.569v-3.070c0-0.039 0-0.083 0-0.13-0.003-0.048-0.003-0.096 0-0.144l-1.635 2.603c-0.021 0.039-0.054 0.072-0.096 0.095s-0.090 0.035-0.14 0.035h-0.092c-0.049 0.001-0.098-0.011-0.14-0.034s-0.075-0.056-0.095-0.095l-1.683-2.62c0 0.050 0 0.1 0 0.149s0 0.094 0 0.133v3.070h-0.55v-4.167h0.48c0.045-0.002 0.090 0.002 0.134 0.014 0.039 0.017 0.071 0.045 0.089 0.080l1.66 2.57c0.033 0.048 0.060 0.097 0.083 0.149z"></path>
            <path d="M60.952 56.58v1.564h-0.636v-4.17h1.419c0.268-0.004 0.535 0.026 0.792 0.091 0.206 0.051 0.397 0.139 0.56 0.26 0.141 0.113 0.25 0.253 0.318 0.409 0.075 0.17 0.112 0.351 0.108 0.533 0.003 0.183-0.037 0.364-0.118 0.533-0.077 0.16-0.194 0.303-0.344 0.417-0.163 0.125-0.355 0.22-0.563 0.276-0.248 0.069-0.507 0.102-0.767 0.097l-0.77-0.011zM60.952 56.132h0.77c0.167 0.002 0.334-0.019 0.493-0.063 0.131-0.038 0.253-0.1 0.356-0.18 0.096-0.077 0.17-0.171 0.216-0.276 0.052-0.111 0.078-0.231 0.076-0.351 0.007-0.116-0.014-0.232-0.064-0.34s-0.125-0.205-0.223-0.285c-0.243-0.165-0.548-0.245-0.856-0.224h-0.77v1.719z"></path>
            <path d="M69.502 58.149h-0.503c-0.050 0.002-0.1-0.012-0.14-0.039-0.036-0.026-0.065-0.059-0.083-0.097l-0.433-1.009h-2.173l-0.448 1.009c-0.017 0.037-0.044 0.069-0.080 0.094-0.040 0.028-0.091 0.043-0.143 0.041h-0.503l1.909-4.176h0.662l1.934 4.176zM66.353 56.599h1.794l-0.757-1.7c-0.058-0.128-0.106-0.259-0.143-0.392l-0.073 0.218c-0.022 0.066-0.048 0.127-0.070 0.177l-0.751 1.697z"></path>
            <path d="M72.25 53.993c0.038 0.018 0.071 0.044 0.095 0.075l2.783 3.148c0-0.050 0-0.1 0-0.147s0-0.094 0-0.138v-2.957h0.569v4.176h-0.318c-0.045 0.001-0.090-0.007-0.13-0.025-0.039-0.020-0.074-0.046-0.102-0.077l-2.78-3.145c0.003 0.048 0.003 0.096 0 0.144 0 0.047 0 0.088 0 0.127v2.977h-0.569v-4.176h0.337c0.039-0.001 0.078 0.006 0.114 0.019z"></path>
            <path d="M80.387 56.489v1.658h-0.636v-1.658l-1.759-2.515h0.569c0.049-0.003 0.098 0.010 0.137 0.036 0.035 0.027 0.064 0.059 0.086 0.094l1.101 1.622c0.045 0.069 0.083 0.133 0.115 0.193s0.057 0.119 0.080 0.177l0.083-0.18c0.031-0.066 0.067-0.129 0.108-0.191l1.085-1.633c0.023-0.033 0.051-0.062 0.083-0.088 0.038-0.029 0.087-0.044 0.137-0.041h0.576l-1.762 2.526z"></path>
            <path d="M54.52 46.965c0.277 0.030 0.557 0.055 0.84 0.077 4.292-1.668 7.923-4.399 10.439-7.85s3.805-7.47 3.707-11.554l-4.73-4.11c0.962 4.349 0.512 8.844-1.299 12.983s-4.912 7.759-8.956 10.454z"></path>
            <path d="M52.831 46.774l0.127 0.022c4.321-2.685 7.616-6.435 9.458-10.765s2.146-9.040 0.874-13.522l-6.737-5.853c2.725 4.811 3.822 10.196 3.163 15.528s-3.046 10.391-6.885 14.59z"></path>
            <path d="M75.679 32.464c-1.145 4.488-3.925 8.535-7.927 11.541-1.169 0.883-2.43 1.669-3.766 2.349 3.259-0.832 6.255-2.304 8.756-4.301s4.441-4.467 5.67-7.218l-2.732-2.371z"></path>
            <path d="M74.607 31.803l-3.89-3.38c-0.074 3.854-1.335 7.62-3.652 10.907s-5.604 5.975-9.52 7.784h0.019c0.873-0 1.745-0.046 2.611-0.135 3.66-1.298 6.894-3.363 9.412-6.011s4.243-5.796 5.020-9.164z"></path>
            <path d="M53.394 14.188l-4.641-4.038c-4.149 1.393-7.717 3.842-10.238 7.026s-3.876 6.955-3.889 10.82v0c0.016 4.27 1.67 8.414 4.701 11.775s7.266 5.748 12.034 6.783c4.256-4.506 6.749-10.073 7.114-15.894s-1.414-11.591-5.082-16.472z"></path>
            <path d="M85.33 31.182c-0.017-5.066-2.341-9.921-6.464-13.503s-9.711-5.601-15.542-5.616c-2.695-0.002-5.366 0.43-7.879 1.274l28.415 24.688c0.973-2.182 1.471-4.502 1.47-6.843z"></path>
        </symbol>
        <symbol id="icon-Logo-1" viewBox="0 0 124 70">
            <path d="M58.466 6.924h-0.159c-0.245-0.015-0.49-0.021-0.735-0.027v0h-0.531c-0.463 0-0.936 0.012-1.405 0.036-0.035-0.003-0.071-0.003-0.106 0-4.252 0.241-8.417 1.304-12.269 3.13l-0.505 0.243v25.831l1.181-0.401c1.036-0.356 2.14-0.676 3.282-0.973 3.088-0.793 6.258-1.214 9.444-1.255v3.394c-0.422 0.003-0.832 0.015-1.243 0.036h-0.097c-2.452 0.135-4.886 0.508-7.266 1.115-3.015 0.755-5.923 1.888-8.656 3.373v-33.129c2.839-1.656 5.896-2.899 9.081-3.694 2.797-0.722 5.672-1.093 8.559-1.104h0.499c0.596 0.015 1.178 0.042 1.724 0.083 1.438 0.101 2.865 0.328 4.265 0.679v3.341c-1.359-0.317-2.74-0.525-4.132-0.623-0.028-0.002-0.056-0.005-0.085-0.007-0.288-0.025-0.576-0.049-0.845-0.049zM64.345 10.338c0.741 0.056 1.508 0.083 2.284 0.083 3.035-0.011 6.058-0.399 8.999-1.154 3.013-0.758 5.92-1.892 8.653-3.376v32.539c-2.84 1.655-5.898 2.898-9.084 3.694-2.797 0.719-5.672 1.089-8.559 1.101-2.188 0.018-4.369-0.24-6.493-0.765v-32.75c0.502 0.116 1.018 0.223 1.543 0.312 0.862 0.145 1.771 0.252 2.656 0.317zM80.905 10.59l-1.181 0.398c-1.086 0.365-2.181 0.691-3.282 0.982-3.205 0.824-6.499 1.246-9.807 1.258-0.77 0-1.479-0.021-2.163-0.065l-0.942-0.062v26.573l0.809 0.071c0.75 0.065 1.523 0.098 2.302 0.098 2.606-0.011 5.2-0.347 7.724-1 2.078-0.521 4.1-1.248 6.036-2.169l0.505-0.243v-25.84z"></path>
            <path d="M41.693 52.748c-0.17-0.176-0.374-0.314-0.6-0.406s-0.469-0.134-0.713-0.125c-0.26-0.003-0.518 0.045-0.758 0.142-0.221 0.088-0.422 0.22-0.59 0.389-0.167 0.169-0.296 0.371-0.381 0.593-0.092 0.233-0.139 0.482-0.136 0.733v4.426c-0.011 0.312 0.049 0.622 0.174 0.908 0.104 0.227 0.255 0.429 0.443 0.593 0.177 0.149 0.385 0.256 0.608 0.315 0.215 0.060 0.438 0.091 0.661 0.092 0.247 0.002 0.49-0.050 0.714-0.154 0.221-0.097 0.422-0.236 0.59-0.409 0.164-0.172 0.295-0.373 0.387-0.593 0.095-0.223 0.143-0.463 0.142-0.706v-0.495h-1.157v0.395c0.003 0.135-0.020 0.269-0.068 0.395-0.038 0.094-0.095 0.179-0.168 0.249-0.072 0.058-0.154 0.101-0.242 0.127-0.078 0.026-0.16 0.040-0.242 0.042-0.103 0.012-0.208-0.003-0.303-0.045s-0.178-0.108-0.24-0.192c-0.109-0.178-0.162-0.385-0.153-0.593v-4.127c-0.007-0.229 0.041-0.456 0.142-0.662 0.060-0.093 0.145-0.168 0.245-0.215s0.212-0.065 0.321-0.052c0.1-0.003 0.199 0.017 0.289 0.061s0.168 0.108 0.228 0.189c0.129 0.17 0.197 0.379 0.192 0.593v0.383h1.145v-0.451c0.002-0.265-0.046-0.528-0.142-0.774-0.085-0.232-0.217-0.444-0.387-0.623z"></path>
            <path d="M48.567 52.697c-0.369-0.312-0.835-0.484-1.316-0.487-0.236 0.001-0.469 0.043-0.691 0.125-0.225 0.081-0.432 0.203-0.611 0.362-0.192 0.172-0.345 0.384-0.449 0.62-0.117 0.27-0.174 0.563-0.168 0.857v4.245c-0.008 0.299 0.049 0.595 0.168 0.869 0.105 0.228 0.258 0.431 0.449 0.593 0.177 0.164 0.385 0.291 0.611 0.374 0.221 0.081 0.455 0.124 0.691 0.125 0.236-0 0.469-0.043 0.691-0.125 0.23-0.084 0.442-0.211 0.626-0.374 0.185-0.166 0.333-0.367 0.437-0.593 0.119-0.274 0.176-0.571 0.168-0.869v-4.245c0.006-0.295-0.052-0.587-0.168-0.857-0.103-0.234-0.251-0.445-0.437-0.62zM48.027 58.42c0.010 0.113-0.006 0.227-0.046 0.333s-0.103 0.202-0.184 0.281c-0.153 0.128-0.346 0.198-0.545 0.198s-0.392-0.070-0.544-0.198c-0.082-0.079-0.145-0.175-0.184-0.281s-0.056-0.22-0.046-0.333v-4.245c-0.010-0.113 0.006-0.227 0.046-0.333s0.103-0.202 0.184-0.281c0.153-0.128 0.345-0.198 0.544-0.198s0.392 0.070 0.545 0.198c0.082 0.079 0.145 0.175 0.184 0.281s0.055 0.22 0.046 0.333v4.245z"></path>
            <path d="M57.595 60.316v-8.037h-1.113l-1.461 4.254h-0.021l-1.473-4.254h-1.101v8.037h1.148v-4.889h0.021l1.124 3.456h0.573l1.133-3.456h0.021v4.889h1.148z"></path>
            <path d="M64.118 52.843c-0.177-0.198-0.4-0.349-0.649-0.439-0.269-0.087-0.55-0.129-0.832-0.125h-1.706v8.037h1.145v-3.139h0.59c0.357 0.016 0.713-0.059 1.033-0.22 0.26-0.145 0.477-0.357 0.629-0.614 0.132-0.214 0.222-0.452 0.263-0.7 0.045-0.302 0.066-0.608 0.062-0.914 0.011-0.386-0.026-0.772-0.112-1.148-0.076-0.278-0.222-0.532-0.422-0.739zM63.527 55.293c-0.005 0.145-0.041 0.288-0.106 0.418-0.065 0.124-0.169 0.223-0.295 0.282-0.17 0.076-0.355 0.11-0.54 0.101h-0.522v-2.732h0.59c0.178-0.009 0.355 0.026 0.516 0.101 0.118 0.068 0.212 0.172 0.269 0.297 0.063 0.141 0.097 0.294 0.1 0.448 0 0.169 0 0.347 0 0.534s0.012 0.38 0 0.552h-0.012z"></path>
            <path d="M69.542 52.279h-0.939l-1.771 8.037h1.145l0.336-1.727h1.561l0.336 1.727h1.145l-1.815-8.037zM68.486 57.495l0.564-2.913h0.021l0.561 2.913h-1.145z"></path>
            <path d="M76.941 57.121h-0.021l-1.729-4.842h-1.101v8.037h1.145v-4.833h0.024l1.75 4.833h1.077v-8.037h-1.145v4.842z"></path>
            <path d="M83.939 52.279l-0.921 3.195h-0.024l-0.921-3.195h-1.213l1.573 4.64v3.397h1.145v-3.397l1.573-4.64h-1.213z"></path>
            <path d="M38.5 62.585h0.552v1.549h0.375v-1.549h0.549v-0.317h-1.476v0.317z"></path>
            <path d="M43.139 62.268l-0.723 1.866h0.398l0.154-0.424h0.744l0.159 0.424h0.407l-0.741-1.866h-0.398zM43.080 63.395l0.254-0.691 0.254 0.691h-0.508z"></path>
            <path d="M47.726 63.446h0.431v0.24c-0.126 0.101-0.282 0.156-0.443 0.157-0.075 0.004-0.15-0.010-0.219-0.041s-0.129-0.078-0.176-0.137c-0.099-0.142-0.148-0.313-0.139-0.487 0-0.415 0.18-0.623 0.537-0.623 0.094-0.009 0.188 0.015 0.266 0.070s0.133 0.135 0.156 0.227l0.369-0.071c-0.080-0.365-0.342-0.549-0.791-0.549-0.24-0.006-0.473 0.080-0.652 0.24-0.094 0.093-0.167 0.205-0.213 0.329s-0.065 0.257-0.055 0.389c-0.011 0.255 0.074 0.505 0.239 0.7 0.091 0.094 0.202 0.167 0.324 0.215s0.253 0.067 0.384 0.058c0.292 0.008 0.576-0.098 0.791-0.297v-0.736h-0.809v0.314z"></path>
            <path d="M52.41 62.268h-0.378v1.866h1.307v-0.317h-0.93v-1.549z"></path>
            <path d="M56.37 62.268h-0.378v1.866h0.378v-1.866z"></path>
            <path d="M60.243 63.514l-0.764-1.246h-0.366v1.866h0.351v-1.219l0.75 1.219h0.375v-1.866h-0.345v1.246z"></path>
            <path d="M63.743 63.312h0.93v-0.317h-0.93v-0.409h1.001v-0.317h-1.378v1.866h1.417v-0.317h-1.039v-0.504z"></path>
            <path d="M72.231 63.004h-0.735v-0.736h-0.375v1.866h0.375v-0.816h0.735v0.816h0.375v-1.866h-0.375v0.736z"></path>
            <path d="M75.752 63.312h0.933v-0.317h-0.933v-0.409h1.003v-0.317h-1.378v1.866h1.414v-0.317h-1.039v-0.504z"></path>
            <path d="M80.527 63.312c0.325-0.050 0.49-0.223 0.49-0.519 0.009-0.079-0.003-0.16-0.035-0.233s-0.083-0.136-0.148-0.182c-0.169-0.085-0.357-0.123-0.546-0.11h-0.791v1.866h0.375v-0.78h0.074c0.080-0.005 0.16 0.009 0.233 0.042 0.055 0.034 0.1 0.081 0.133 0.137l0.407 0.593h0.449l-0.227-0.365c-0.1-0.18-0.242-0.334-0.413-0.448zM80.149 63.054h-0.277v-0.469h0.295c0.129-0.010 0.258 0.005 0.381 0.044 0.027 0.024 0.049 0.054 0.063 0.088s0.021 0.070 0.019 0.107c-0.002 0.036-0.012 0.072-0.029 0.104s-0.042 0.060-0.071 0.081c-0.123 0.038-0.252 0.053-0.381 0.045z"></path>
            <path d="M84.128 63.312h0.93v-0.317h-0.93v-0.409h1.003v-0.317h-1.381v1.866h1.417v-0.317h-1.039v-0.504z"></path>
        </symbol>
        <symbol id="icon-Logo" viewBox="0 0 124 70">
            <path d="M44.333 8.167l8.176 7.74-15.176-0.009v37.552h39.667v-14.358l8.167 7.731v-38.656h-40.833zM76.641 38.183l-23.181-21.945h23.181v21.945zM69.444 47.956h-25.833v-25.256h1.826v23.545h24.007v1.71zM49.71 58.449l-0.954 1.965-0.954-1.965h-0.8l1.393 2.62v1.527h0.723v-1.527l1.39-2.62h-0.798zM50.909 62.596l0.336-0.966h1.607l0.339 0.966h0.752l-1.569-4.147h-0.647l-1.567 4.147h0.749zM52.049 59.329l0.601 1.72h-1.202l0.601-1.72zM55.848 60.95c-0.104 0.159-0.157 0.335-0.157 0.527 0 0.349 0.123 0.633 0.367 0.852 0.247 0.217 0.575 0.325 0.985 0.325s0.763-0.111 1.060-0.333l0.234 0.276h0.803l-0.61-0.721c0.239-0.327 0.359-0.745 0.359-1.256h-0.601c0 0.279-0.058 0.533-0.174 0.76l-0.8-0.946 0.282-0.205c0.199-0.144 0.343-0.289 0.43-0.433 0.087-0.146 0.131-0.306 0.131-0.478 0-0.262-0.097-0.481-0.291-0.658-0.192-0.178-0.439-0.268-0.741-0.268-0.334 0-0.6 0.095-0.798 0.285-0.197 0.188-0.296 0.444-0.296 0.769 0 0.133 0.031 0.271 0.094 0.413 0.065 0.142 0.178 0.315 0.339 0.518-0.308 0.22-0.514 0.411-0.618 0.573zM57.72 61.867c-0.203 0.156-0.422 0.234-0.655 0.234-0.207 0-0.372-0.060-0.496-0.179s-0.185-0.275-0.185-0.467c0-0.222 0.114-0.42 0.342-0.592l0.088-0.063 0.906 1.068zM56.976 60.030c-0.196-0.241-0.293-0.441-0.293-0.601 0-0.139 0.040-0.254 0.12-0.345s0.187-0.137 0.322-0.137c0.125 0 0.229 0.039 0.31 0.117 0.082 0.076 0.123 0.168 0.123 0.276 0 0.163-0.059 0.297-0.177 0.402l-0.088 0.071-0.316 0.216zM63.727 62.283c0.285-0.249 0.448-0.594 0.49-1.037h-0.718c-0.038 0.296-0.128 0.508-0.271 0.635s-0.355 0.191-0.638 0.191c-0.31 0-0.545-0.118-0.706-0.353-0.16-0.236-0.239-0.577-0.239-1.026v-0.367c0.004-0.442 0.089-0.778 0.256-1.005 0.169-0.23 0.41-0.345 0.723-0.345 0.27 0 0.474 0.066 0.612 0.199 0.141 0.131 0.228 0.346 0.262 0.644h0.718c-0.046-0.454-0.208-0.805-0.487-1.054s-0.648-0.373-1.105-0.373c-0.34 0-0.64 0.081-0.9 0.242-0.258 0.161-0.457 0.391-0.595 0.689s-0.208 0.643-0.208 1.034v0.387c0.006 0.382 0.077 0.717 0.214 1.005s0.33 0.512 0.581 0.669c0.253 0.156 0.544 0.234 0.874 0.234 0.473 0 0.852-0.123 1.136-0.37zM67.962 61.702c0.141-0.308 0.211-0.665 0.211-1.071v-0.231c-0.002-0.404-0.074-0.759-0.217-1.063-0.142-0.306-0.345-0.539-0.607-0.701-0.26-0.163-0.559-0.245-0.897-0.245s-0.638 0.083-0.9 0.248c-0.26 0.163-0.462 0.4-0.607 0.709-0.142 0.31-0.214 0.667-0.214 1.071v0.234c0.002 0.397 0.074 0.747 0.216 1.051 0.144 0.304 0.348 0.538 0.61 0.704 0.264 0.163 0.564 0.245 0.9 0.245 0.34 0 0.64-0.082 0.9-0.245 0.262-0.165 0.463-0.401 0.604-0.706zM67.19 59.358c0.175 0.245 0.262 0.597 0.262 1.057v0.216c0 0.467-0.086 0.822-0.259 1.065-0.171 0.243-0.416 0.365-0.735 0.365-0.315 0-0.562-0.124-0.741-0.373-0.177-0.249-0.265-0.601-0.265-1.057v-0.239c0.004-0.446 0.093-0.791 0.268-1.034 0.177-0.245 0.421-0.367 0.732-0.367 0.319 0 0.565 0.123 0.738 0.367z"></path>
        </symbol>
        <symbol id="icon-smartphone" viewBox="0 0 20 32">
            <path d="M17 0h-14c-1.654 0-3 1.346-3 3v26c0 1.654 1.346 3 3 3h14c1.654 0 3-1.346 3-3v-26c0-1.654-1.346-3-3-3zM3 2h14c0.552 0 1 0.448 1 1v21h-16v-21c0-0.552 0.448-1 1-1zM17 30h-14c-0.552 0-1-0.448-1-1v-3h16v3c0 0.552-0.448 1-1 1z"></path>
            <path d="M4.707 27.478c0.391 0.365 0.391 0.956 0 1.321s-1.024 0.365-1.414 0c-0.391-0.365-0.391-0.956 0-1.321s1.024-0.365 1.414 0z"></path>
        </symbol>
        <symbol id="icon-envelope" viewBox="0 0 43 32">
            <path d="M38.667 0h-34.667c-2.206 0-4 1.794-4 4v24c0 2.206 1.794 4 4 4h34.667c2.206 0 4-1.794 4-4v-24c0-2.206-1.794-4-4-4zM38.667 2.667c0.181 0 0.353 0.038 0.511 0.103l-17.844 15.466-17.844-15.466c0.158-0.066 0.33-0.103 0.511-0.103h34.667zM38.667 29.333h-34.667c-0.736 0-1.333-0.598-1.333-1.333v-22.413l17.793 15.421c0.251 0.217 0.563 0.326 0.874 0.326s0.622-0.108 0.874-0.326l17.793-15.421v22.413c0 0.736-0.598 1.333-1.333 1.333z"></path>
        </symbol>
        <symbol id="icon-close-cross" viewBox="0 0 11 11">
            <path d="M11 1.108l-1.108-1.108-4.392 4.392-4.392-4.392-1.108 1.108 4.392 4.392-4.392 4.392 1.108 1.108 4.392-4.392 4.392 4.392 1.108-1.108-4.392-4.392 4.392-4.392z"></path>
        </symbol>
        <symbol id="icon-cross" viewBox="0 0 11 11">
            <path d="M10.9 8.837c-0-0-0-0-0-0l-3.337-3.337 3.337-3.337c0-0 0-0 0-0 0.036-0.036 0.062-0.078 0.079-0.123 0.046-0.122 0.020-0.265-0.079-0.363l-1.576-1.576c-0.098-0.098-0.241-0.124-0.363-0.079-0.045 0.017-0.087 0.043-0.123 0.079 0 0-0 0-0 0l-3.337 3.337-3.337-3.337c-0-0-0-0-0-0-0.036-0.036-0.078-0.062-0.123-0.079-0.122-0.046-0.265-0.020-0.363 0.079l-1.576 1.576c-0.098 0.098-0.124 0.241-0.079 0.363 0.017 0.045 0.043 0.087 0.079 0.123 0 0 0 0 0 0l3.337 3.337-3.337 3.337c-0 0-0 0-0 0-0.036 0.036-0.062 0.078-0.079 0.123-0.046 0.122-0.020 0.265 0.079 0.363l1.576 1.576c0.098 0.098 0.241 0.124 0.363 0.079 0.045-0.017 0.087-0.043 0.123-0.079 0-0 0-0 0-0l3.337-3.337 3.337 3.337c0 0 0 0 0 0 0.036 0.036 0.078 0.062 0.123 0.079 0.122 0.046 0.265 0.020 0.363-0.079l1.576-1.576c0.098-0.098 0.124-0.241 0.079-0.363-0.017-0.045-0.043-0.087-0.079-0.123z"></path>
        </symbol>
        <symbol id="icon-email" viewBox="0 0 43 32">
            <path d="M37.333 0h-32c-2.2 0-3.98 1.8-3.98 4l-0.020 24c0 2.2 1.8 4 4 4h32c2.2 0 4-1.8 4-4v-24c0-2.2-1.8-4-4-4zM36.533 8.5l-14.14 8.84c-0.64 0.4-1.48 0.4-2.12 0l-14.14-8.84c-0.5-0.32-0.8-0.86-0.8-1.44 0-1.34 1.46-2.14 2.6-1.44l13.4 8.38 13.4-8.38c1.14-0.7 2.6 0.1 2.6 1.44 0 0.58-0.3 1.12-0.8 1.44z"></path>
        </symbol>
        <symbol id="icon-cellphone" viewBox="0 0 32 32">
            <path d="M27.419 20.852l-4.201-0.48c-1.009-0.116-2.002 0.232-2.713 0.943l-3.044 3.044c-4.681-2.382-8.519-6.203-10.901-10.901l3.060-3.060c0.711-0.711 1.059-1.704 0.943-2.713l-0.48-4.168c-0.198-1.671-1.604-2.928-3.292-2.928h-2.862c-1.869 0-3.424 1.555-3.308 3.424 0.877 14.126 12.174 25.407 26.284 26.284 1.869 0.116 3.424-1.439 3.424-3.308v-2.862c0.016-1.671-1.241-3.077-2.911-3.275z"></path>
        </symbol>
        <symbol id="icon-user" viewBox="0 0 32 32">
            <path d="M16 16c4.42 0 8-3.58 8-8s-3.58-8-8-8c-4.42 0-8 3.58-8 8s3.58 8 8 8zM16 20c-5.34 0-16 2.68-16 8v2c0 1.1 0.9 2 2 2h28c1.1 0 2-0.9 2-2v-2c0-5.32-10.66-8-16-8z"></path>
        </symbol>
        <symbol id="icon-telega" viewBox="0 0 24 24">
            <path d="M24 0l-24 13.5 7.67 2.841 11.83-11.091-8.998 12.14 0.007 0.003-0.009-0.003v6.61l4.301-5.018 5.449 2.018 3.75-21z"></path>
        </symbol>
        <symbol id="icon-checked" viewBox="0 0 21 16">
            <path d="M3.131 7.603l-0.11-0.105-1.653 1.566 5.825 5.557 12.239-11.675-1.643-1.567-10.596 10.099-4.062-3.875z"></path>
        </symbol>
        <symbol id="icon-check-frame" viewBox="0 0 17 16">
            <path d="M15.17 1.778v12.444h-13.274v-12.444h13.274zM15.17 0h-13.274c-1.043 0-1.896 0.8-1.896 1.778v12.444c0 0.978 0.853 1.778 1.896 1.778h13.274c1.043 0 1.896-0.8 1.896-1.778v-12.444c0-0.978-0.853-1.778-1.896-1.778z"></path>
        </symbol>
        <symbol id="icon-Group-6" viewBox="0 0 17 16">
            <path d="M15.17 1.778v12.444h-13.274v-12.444h13.274zM15.17 0h-13.274c-1.043 0-1.896 0.8-1.896 1.778v12.444c0 0.978 0.853 1.778 1.896 1.778h13.274c1.043 0 1.896-0.8 1.896-1.778v-12.444c0-0.978-0.853-1.778-1.896-1.778z"></path>
            <path fill="#fff" style="fill: var(--color2, #fff); stroke: var(--color2, #fff)" stroke="#fff" stroke-linejoin="miter" stroke-linecap="butt" stroke-miterlimit="4" stroke-width="0.2133" d="M6.59 10.609l-2.528-2.985-1.001 1.174 3.53 4.167 7.417-8.756-0.995-1.174-6.422 7.574z"></path>
        </symbol>
        <symbol id="icon-exit" viewBox="0 0 16 16">
            <path d="M12 10v-2h-5v-2h5v-2l3 3zM11 9v4h-5v3l-6-3v-13h11v5h-1v-4h-8l4 2v9h4v-3z"></path>
        </symbol>
    </defs>
</svg>